# xmcd
#
# Track frame offsets:
#	150
#	15236
#	29304
#	42973
#	56556
#	69557
#	84210
#	101738
#	121535
#	134970
#	155066
#	168958
#
# Disc length: 2544 seconds
# Revision: 0
# Processed by: cddbd v1.5.2PL0 Copyright (c) Steve Scherf et al.
# Submitted via: dBpowerAMP V12.0
#
DISCID=9509ee0c
DTITLE=Joe Turner - Joe Turner
DYEAR=2003
DGENRE=Blues
TTITLE0=Honey Hush
TTITLE1=Cherry Red
TTITLE2=Shake Rattle and Roll
TTITLE3=Chains Of Love
TTITLE4=Cry Baby Blues
TTITLE5=I Can't Give You Anything But Love
TTITLE6=Piney Brown Blues
TTITLE7=Nothin' From Nuthin' Blues
TTITLE8=Roll'em Pete
TTITLE9=Squeeze Me Baby
TTITLE10=Corinne Corinna
TTITLE11=Feeling Happy
EXTD=
EXTT0=
EXTT1=
EXTT2=
EXTT3=
EXTT4=
EXTT5=
EXTT6=
EXTT7=
EXTT8=
EXTT9=
EXTT10=
EXTT11=
PLAYORDER=
